<svg xmlns="http://www.w3.org/2000/svg" xmlns:xlink="http://www.w3.org/1999/xlink" width="500" zoomAndPan="magnify" viewBox="0 0 375 374.999991" height="500" preserveAspectRatio="xMidYMid meet" version="1.0"><defs><clipPath id="460fd45bbe"><path d="M 6.757812 6.757812 L 368.242188 6.757812 L 368.242188 368.242188 L 6.757812 368.242188 Z M 6.757812 6.757812 " clip-rule="nonzero"/></clipPath><clipPath id="3d9074d876"><path d="M 187.5 6.757812 C 87.679688 6.757812 6.757812 87.679688 6.757812 187.5 C 6.757812 287.320312 87.679688 368.242188 187.5 368.242188 C 287.320312 368.242188 368.242188 287.320312 368.242188 187.5 C 368.242188 87.679688 287.320312 6.757812 187.5 6.757812 Z M 187.5 6.757812 " clip-rule="nonzero"/></clipPath></defs><g clip-path="url(#460fd45bbe)"><g clip-path="url(#3d9074d876)"><path fill="#da203f" d="M 6.757812 6.757812 L 368.242188 6.757812 L 368.242188 368.242188 L 6.757812 368.242188 Z M 6.757812 6.757812 " fill-opacity="1" fill-rule="nonzero"/></g></g><path fill="#69202a" d="M 123.398438 106.894531 C 141.253906 106.894531 156.285156 121.5625 168.496094 150.894531 C 173.15625 161.667969 176.71875 172.789062 179.1875 184.261719 C 181.65625 195.738281 182.980469 207.339844 183.160156 219.074219 C 182.71875 231.226562 181.019531 243.195312 178.058594 254.988281 C 176.359375 262.828125 175.074219 269.671875 174.207031 275.523438 C 173.4375 280.261719 173.003906 285.03125 172.90625 289.832031 C 172.90625 297.890625 177.925781 301.921875 187.957031 301.921875 C 199.65625 301.921875 205.515625 296.914062 205.53125 286.898438 C 205.476562 282.359375 205.167969 277.835938 204.613281 273.328125 C 203.796875 266.761719 202.632812 260.257812 201.117188 253.816406 C 199.640625 246.496094 198.566406 240.066406 198.007812 234.582031 C 197.457031 230.015625 197.148438 225.433594 197.089844 220.835938 C 197.089844 188.085938 205.394531 159.976562 222.007812 136.507812 C 229.609375 125.574219 237.066406 118.027344 244.378906 113.859375 C 248.535156 111.664062 252.796875 109.523438 257.132812 107.457031 C 261.46875 105.390625 266.007812 103.324219 270.394531 101.03125 L 272.230469 95.519531 C 272.230469 81.371094 267.34375 74.289062 257.566406 74.273438 C 239.964844 74.273438 224.320312 90.035156 210.632812 121.5625 C 199.410156 147.222656 193.1875 170.808594 191.960938 192.320312 C 186.859375 161.269531 181.359375 138.167969 175.457031 123.015625 C 164.203125 92.40625 149.167969 77.105469 130.363281 77.105469 C 128.390625 77.023438 126.429688 77.121094 124.476562 77.394531 C 122.523438 77.667969 120.609375 78.113281 118.734375 78.730469 C 116.863281 79.347656 115.058594 80.128906 113.328125 81.074219 C 111.59375 82.019531 109.960938 83.109375 108.425781 84.347656 C 107.007812 85.582031 105.75 86.964844 104.644531 88.488281 C 103.542969 90.011719 102.625 91.636719 101.894531 93.371094 C 101.164062 95.105469 100.636719 96.898438 100.3125 98.75 C 99.992188 100.601562 99.882812 102.46875 99.984375 104.34375 C 99.976562 107.203125 100.351562 110.007812 101.105469 112.761719 C 104.507812 110.84375 108.097656 109.390625 111.875 108.394531 C 115.652344 107.402344 119.492188 106.902344 123.398438 106.894531 Z M 123.398438 106.894531 " fill-opacity="1" fill-rule="nonzero"/></svg>